<svg version="1.1" xmlns="http://www.w3.org/2000/svg" viewBox="0 0 1510 680" width="1510" height="680"><!-- svg-source:excalidraw --><metadata></metadata><defs><style class="style-fonts">
      </style></defs><rect x="0" y="0" width="1510" height="680" fill="#ffffff"></rect><g transform="translate(10 10) rotate(0 450 20)"><text x="0" y="25.060546875" font-family="Helvetica, Segoe UI Emoji" font-size="28px" fill="#1e293b" text-anchor="start" style="white-space: pre;" direction="ltr" dominant-baseline="alphabetic">异步评测与贝叶斯学习闭环</text></g><g transform="translate(10 58) rotate(0 500 14)"><text x="0" y="14.3203125" font-family="Helvetica, Segoe UI Emoji" font-size="16px" fill="#64748b" text-anchor="start" style="white-space: pre;" direction="ltr" dominant-baseline="alphabetic">不阻塞当前回答，不直接修改 active 策略。虚线表示异步支路。</text></g><g stroke-linecap="round" transform="translate(10 132) rotate(0 125 45)"><path d="M22.5 0 C85.74 0, 148.97 0, 227.5 0 C242.5 0, 250 7.5, 250 22.5 C250 38.78, 250 55.07, 250 67.5 C250 82.5, 242.5 90, 227.5 90 C185.67 90, 143.84 90, 22.5 90 C7.5 90, 0 82.5, 0 67.5 C0 50.16, 0 32.82, 0 22.5 C0 7.5, 7.5 0, 22.5 0" stroke="none" stroke-width="0" fill="#e0f2fe"></path><path d="M22.5 0 C73.66 0, 124.82 0, 227.5 0 M22.5 0 C104 0, 185.51 0, 227.5 0 M227.5 0 C242.5 0, 250 7.5, 250 22.5 M227.5 0 C242.5 0, 250 7.5, 250 22.5 M250 22.5 C250 35.24, 250 47.98, 250 67.5 M250 22.5 C250 39.23, 250 55.95, 250 67.5 M250 67.5 C250 82.5, 242.5 90, 227.5 90 M250 67.5 C250 82.5, 242.5 90, 227.5 90 M227.5 90 C167.09 90, 106.69 90, 22.5 90 M227.5 90 C170 90, 112.49 90, 22.5 90 M22.5 90 C7.5 90, 0 82.5, 0 67.5 M22.5 90 C7.5 90, 0 82.5, 0 67.5 M0 67.5 C0 49.85, 0 32.2, 0 22.5 M0 67.5 C0 54.18, 0 40.85, 0 22.5 M0 22.5 C0 7.5, 7.5 0, 22.5 0 M0 22.5 C0 7.5, 7.5 0, 22.5 0" stroke="#0369a1" stroke-width="2" fill="none"></path></g><g transform="translate(25 145) rotate(0 110 30)"><text x="110" y="17.900390625" font-family="Helvetica, Segoe UI Emoji" font-size="20px" fill="#334155" text-anchor="middle" style="white-space: pre;" direction="ltr" dominant-baseline="alphabetic">成功的 auto 请求</text><text x="110" y="42.900390625" font-family="Helvetica, Segoe UI Emoji" font-size="20px" fill="#334155" text-anchor="middle" style="white-space: pre;" direction="ltr" dominant-baseline="alphabetic">返回客户端</text></g><g stroke-linecap="round" transform="translate(320 132) rotate(0 125 45)"><path d="M22.5 0 C93.93 0, 165.36 0, 227.5 0 C242.5 0, 250 7.5, 250 22.5 C250 32.06, 250 41.63, 250 67.5 C250 82.5, 242.5 90, 227.5 90 C171.15 90, 114.79 90, 22.5 90 C7.5 90, 0 82.5, 0 67.5 C0 55.27, 0 43.04, 0 22.5 C0 7.5, 7.5 0, 22.5 0" stroke="none" stroke-width="0" fill="#e0f2fe"></path><path d="M22.5 0 C73.66 0, 124.83 0, 227.5 0 M22.5 0 C92.52 0, 162.54 0, 227.5 0 M227.5 0 C242.5 0, 250 7.5, 250 22.5 M227.5 0 C242.5 0, 250 7.5, 250 22.5 M250 22.5 C250 36.82, 250 51.13, 250 67.5 M250 22.5 C250 38.28, 250 54.06, 250 67.5 M250 67.5 C250 82.5, 242.5 90, 227.5 90 M250 67.5 C250 82.5, 242.5 90, 227.5 90 M227.5 90 C160.67 90, 93.84 90, 22.5 90 M227.5 90 C163.51 90, 99.52 90, 22.5 90 M22.5 90 C7.5 90, 0 82.5, 0 67.5 M22.5 90 C7.5 90, 0 82.5, 0 67.5 M0 67.5 C0 51.04, 0 34.58, 0 22.5 M0 67.5 C0 56.3, 0 45.1, 0 22.5 M0 22.5 C0 7.5, 7.5 0, 22.5 0 M0 22.5 C0 7.5, 7.5 0, 22.5 0" stroke="#0369a1" stroke-width="2" fill="none"></path></g><g transform="translate(335 145) rotate(0 110 30)"><text x="110" y="17.900390625" font-family="Helvetica, Segoe UI Emoji" font-size="20px" fill="#334155" text-anchor="middle" style="white-space: pre;" direction="ltr" dominant-baseline="alphabetic">按比例与每日预算</text><text x="110" y="42.900390625" font-family="Helvetica, Segoe UI Emoji" font-size="20px" fill="#334155" text-anchor="middle" style="white-space: pre;" direction="ltr" dominant-baseline="alphabetic">异步抽样</text></g><g stroke-linecap="round" transform="translate(630 132) rotate(0 125 45)"><path d="M22.5 0 C102.12 0, 181.75 0, 227.5 0 C242.5 0, 250 7.5, 250 22.5 C250 34.35, 250 46.19, 250 67.5 C250 82.5, 242.5 90, 227.5 90 C156.62 90, 85.75 90, 22.5 90 C7.5 90, 0 82.5, 0 67.5 C0 51.38, 0 35.25, 0 22.5 C0 7.5, 7.5 0, 22.5 0" stroke="none" stroke-width="0" fill="#e0f2fe"></path><path d="M22.5 0 C73.67 0, 124.83 0, 227.5 0 M22.5 0 C81.04 0, 139.58 0, 227.5 0 M227.5 0 C242.5 0, 250 7.5, 250 22.5 M227.5 0 C242.5 0, 250 7.5, 250 22.5 M250 22.5 C250 38.39, 250 54.28, 250 67.5 M250 22.5 C250 37.34, 250 52.18, 250 67.5 M250 67.5 C250 82.5, 242.5 90, 227.5 90 M250 67.5 C250 82.5, 242.5 90, 227.5 90 M227.5 90 C154.24 90, 80.98 90, 22.5 90 M227.5 90 C157.02 90, 86.55 90, 22.5 90 M22.5 90 C7.5 90, 0 82.5, 0 67.5 M22.5 90 C7.5 90, 0 82.5, 0 67.5 M0 67.5 C0 52.23, 0 36.95, 0 22.5 M0 67.5 C0 58.42, 0 49.34, 0 22.5 M0 22.5 C0 7.5, 7.5 0, 22.5 0 M0 22.5 C0 7.5, 7.5 0, 22.5 0" stroke="#0369a1" stroke-width="2" fill="none"></path></g><g transform="translate(645 145) rotate(0 110 30)"><text x="110" y="17.900390625" font-family="Helvetica, Segoe UI Emoji" font-size="20px" fill="#334155" text-anchor="middle" style="white-space: pre;" direction="ltr" dominant-baseline="alphabetic">候选与强基线</text><text x="110" y="42.900390625" font-family="Helvetica, Segoe UI Emoji" font-size="20px" fill="#334155" text-anchor="middle" style="white-space: pre;" direction="ltr" dominant-baseline="alphabetic">盲化对比评审</text></g><g stroke-linecap="round" transform="translate(940 132) rotate(0 125 45)"><path d="M22.5 0 C69.32 0, 116.13 0, 227.5 0 C242.5 0, 250 7.5, 250 22.5 C250 36.63, 250 50.76, 250 67.5 C250 82.5, 242.5 90, 227.5 90 C183.1 90, 138.7 90, 22.5 90 C7.5 90, 0 82.5, 0 67.5 C0 56.48, 0 45.47, 0 22.5 C0 7.5, 7.5 0, 22.5 0" stroke="none" stroke-width="0" fill="#e0f2fe"></path><path d="M22.5 0 C73.67 0, 124.84 0, 227.5 0 M22.5 0 C69.56 0, 116.61 0, 227.5 0 M227.5 0 C242.5 0, 250 7.5, 250 22.5 M227.5 0 C242.5 0, 250 7.5, 250 22.5 M250 22.5 C250 39.97, 250 57.43, 250 67.5 M250 22.5 C250 36.4, 250 50.29, 250 67.5 M250 67.5 C250 82.5, 242.5 90, 227.5 90 M250 67.5 C250 82.5, 242.5 90, 227.5 90 M227.5 90 C147.82 90, 68.13 90, 22.5 90 M227.5 90 C150.54 90, 73.57 90, 22.5 90 M22.5 90 C7.5 90, 0 82.5, 0 67.5 M22.5 90 C7.5 90, 0 82.5, 0 67.5 M0 67.5 C0 53.41, 0 39.33, 0 22.5 M0 67.5 C0 51.54, 0 35.59, 0 22.5 M0 22.5 C0 7.5, 7.5 0, 22.5 0 M0 22.5 C0 7.5, 7.5 0, 22.5 0" stroke="#0369a1" stroke-width="2" fill="none"></path></g><g transform="translate(955 145) rotate(0 110 30)"><text x="110" y="17.900390625" font-family="Helvetica, Segoe UI Emoji" font-size="20px" fill="#334155" text-anchor="middle" style="white-space: pre;" direction="ltr" dominant-baseline="alphabetic">按日累计证据</text><text x="110" y="42.900390625" font-family="Helvetica, Segoe UI Emoji" font-size="20px" fill="#334155" text-anchor="middle" style="white-space: pre;" direction="ltr" dominant-baseline="alphabetic">胜 · 负 · 平 · 严重错误</text></g><g stroke-linecap="round" transform="translate(1250 132) rotate(0 125 45)"><path d="M22.5 0 C77.51 0, 132.52 0, 227.5 0 C242.5 0, 250 7.5, 250 22.5 C250 38.91, 250 55.32, 250 67.5 C250 82.5, 242.5 90, 227.5 90 C168.58 90, 109.66 90, 22.5 90 C7.5 90, 0 82.5, 0 67.5 C0 52.59, 0 37.69, 0 22.5 C0 7.5, 7.5 0, 22.5 0" stroke="none" stroke-width="0" fill="#f3e8ff"></path><path d="M22.5 0 C73.67 0, 124.84 0, 227.5 0 M22.5 0 C99.07 0, 175.65 0, 227.5 0 M227.5 0 C242.5 0, 250 7.5, 250 22.5 M227.5 0 C242.5 0, 250 7.5, 250 22.5 M250 22.5 C250 32.54, 250 42.58, 250 67.5 M250 22.5 C250 35.45, 250 48.41, 250 67.5 M250 67.5 C250 82.5, 242.5 90, 227.5 90 M250 67.5 C250 82.5, 242.5 90, 227.5 90 M227.5 90 C182.39 90, 137.28 90, 22.5 90 M227.5 90 C185.05 90, 142.6 90, 22.5 90 M22.5 90 C7.5 90, 0 82.5, 0 67.5 M22.5 90 C7.5 90, 0 82.5, 0 67.5 M0 67.5 C0 54.6, 0 41.7, 0 22.5 M0 67.5 C0 53.67, 0 39.83, 0 22.5 M0 22.5 C0 7.5, 7.5 0, 22.5 0 M0 22.5 C0 7.5, 7.5 0, 22.5 0" stroke="#6b21a8" stroke-width="2" fill="none"></path></g><g transform="translate(1265 145) rotate(0 110 30)"><text x="110" y="17.900390625" font-family="Helvetica, Segoe UI Emoji" font-size="20px" fill="#334155" text-anchor="middle" style="white-space: pre;" direction="ltr" dominant-baseline="alphabetic">Beta 后验更新</text><text x="110" y="42.900390625" font-family="Helvetica, Segoe UI Emoji" font-size="20px" fill="#334155" text-anchor="middle" style="white-space: pre;" direction="ltr" dominant-baseline="alphabetic">30 天半衰期</text></g><g stroke-linecap="round" transform="translate(1265 312) rotate(0 110 70)"><path d="M138.75 17.75 C155.24 28.7, 171.74 39.64, 192.25 53.25 C220 71, 220 71, 192.25 88.75 C180.73 95.97, 169.2 103.18, 138.75 122.25 C111 140, 111 140, 83.25 122.25 C63.37 110.25, 43.48 98.25, 27.75 88.75 C0 71, 0 71, 27.75 53.25 C39.84 45.52, 51.92 37.79, 83.25 17.75 C111 0, 111 0, 138.75 17.75" stroke="none" stroke-width="0" fill="#fef9c3"></path><path d="M138.75 17.75 C152.1 26.61, 165.46 35.47, 192.25 53.25 M138.75 17.75 C155.74 29.02, 172.72 40.29, 192.25 53.25 M192.25 53.25 C220 71, 220 71, 192.25 88.75 M192.25 53.25 C220 71, 220 71, 192.25 88.75 M192.25 88.75 C178.44 97.4, 164.63 106.05, 138.75 122.25 M192.25 88.75 C177.97 97.69, 163.69 106.63, 138.75 122.25 M138.75 122.25 C111 140, 111 140, 83.25 122.25 M138.75 122.25 C111 140, 111 140, 83.25 122.25 M83.25 122.25 C69.3 113.83, 55.35 105.41, 27.75 88.75 M83.25 122.25 C70 114.25, 56.75 106.26, 27.75 88.75 M27.75 88.75 C0 71, 0 71, 27.75 53.25 M27.75 88.75 C0 71, 0 71, 27.75 53.25 M27.75 53.25 C42.2 44.01, 56.64 34.77, 83.25 17.75 M27.75 53.25 C42.19 44.01, 56.64 34.77, 83.25 17.75 M83.25 17.75 C111 0, 111 0, 138.75 17.75 M83.25 17.75 C111 0, 111 0, 138.75 17.75" stroke="#854d0e" stroke-width="2" fill="none"></path></g><g transform="translate(1300 347) rotate(0 75 35)"><text x="75" y="17.900390625" font-family="Helvetica, Segoe UI Emoji" font-size="20px" fill="#334155" text-anchor="middle" style="white-space: pre;" direction="ltr" dominant-baseline="alphabetic">有效样本</text><text x="75" y="42.900390625" font-family="Helvetica, Segoe UI Emoji" font-size="20px" fill="#334155" text-anchor="middle" style="white-space: pre;" direction="ltr" dominant-baseline="alphabetic">达到 20？</text></g><g stroke-linecap="round" transform="translate(1265 532) rotate(0 110 39)"><path d="M19.5 0 C82.54 0, 145.58 0, 200.5 0 C213.5 0, 220 6.5, 220 19.5 C220 29.88, 220 40.26, 220 58.5 C220 71.5, 213.5 78, 200.5 78 C159.03 78, 117.56 78, 19.5 78 C6.5 78, 0 71.5, 0 58.5 C0 46.64, 0 34.77, 0 19.5 C0 6.5, 6.5 0, 19.5 0" stroke="none" stroke-width="0" fill="#f1f5f9"></path><path d="M19.5 0 C64.68 0, 109.86 0, 200.5 0 M19.5 0 C66.83 0, 114.17 0, 200.5 0 M200.5 0 C213.5 0, 220 6.5, 220 19.5 M200.5 0 C213.5 0, 220 6.5, 220 19.5 M220 19.5 C220 30.93, 220 42.37, 220 58.5 M220 19.5 C220 29.09, 220 38.68, 220 58.5 M220 58.5 C220 71.5, 213.5 78, 200.5 78 M220 58.5 C220 71.5, 213.5 78, 200.5 78 M200.5 78 C149.32 78, 98.15 78, 19.5 78 M200.5 78 C151.57 78, 102.63 78, 19.5 78 M19.5 78 C6.5 78, 0 71.5, 0 58.5 M19.5 78 C6.5 78, 0 71.5, 0 58.5 M0 58.5 C0 49.38, 0 40.26, 0 19.5 M0 58.5 C0 50.19, 0 41.88, 0 19.5 M0 19.5 C0 6.5, 6.5 0, 19.5 0 M0 19.5 C0 6.5, 6.5 0, 19.5 0" stroke="#475569" stroke-width="2" fill="none"></path></g><g transform="translate(1280 542) rotate(0 95 27)"><text x="95" y="17.900390625" font-family="Helvetica, Segoe UI Emoji" font-size="20px" fill="#334155" text-anchor="middle" style="white-space: pre;" direction="ltr" dominant-baseline="alphabetic">不足：继续积累</text><text x="95" y="42.900390625" font-family="Helvetica, Segoe UI Emoji" font-size="20px" fill="#334155" text-anchor="middle" style="white-space: pre;" direction="ltr" dominant-baseline="alphabetic">只在后台展示</text></g><g stroke-linecap="round" transform="translate(940 337) rotate(0 125 45)"><path d="M22.5 0 C102.09 0, 181.68 0, 227.5 0 C242.5 0, 250 7.5, 250 22.5 C250 36.76, 250 51.01, 250 67.5 C250 82.5, 242.5 90, 227.5 90 C166.01 90, 104.52 90, 22.5 90 C7.5 90, 0 82.5, 0 67.5 C0 49.92, 0 32.34, 0 22.5 C0 7.5, 7.5 0, 22.5 0" stroke="none" stroke-width="0" fill="#f3e8ff"></path><path d="M22.5 0 C73.68 0, 124.85 0, 227.5 0 M22.5 0 C64.63 0, 106.75 0, 227.5 0 M227.5 0 C242.5 0, 250 7.5, 250 22.5 M227.5 0 C242.5 0, 250 7.5, 250 22.5 M250 22.5 C250 37.27, 250 52.04, 250 67.5 M250 22.5 C250 32.62, 250 42.75, 250 67.5 M250 67.5 C250 82.5, 242.5 90, 227.5 90 M250 67.5 C250 82.5, 242.5 90, 227.5 90 M227.5 90 C163.11 90, 98.73 90, 22.5 90 M227.5 90 C165.59 90, 103.68 90, 22.5 90 M22.5 90 C7.5 90, 0 82.5, 0 67.5 M22.5 90 C7.5 90, 0 82.5, 0 67.5 M0 67.5 C0 58.16, 0 48.82, 0 22.5 M0 67.5 C0 51.03, 0 34.57, 0 22.5 M0 22.5 C0 7.5, 7.5 0, 22.5 0 M0 22.5 C0 7.5, 7.5 0, 22.5 0" stroke="#6b21a8" stroke-width="2" fill="none"></path></g><g transform="translate(955 350) rotate(0 110 30)"><text x="110" y="17.900390625" font-family="Helvetica, Segoe UI Emoji" font-size="20px" fill="#334155" text-anchor="middle" style="white-space: pre;" direction="ltr" dominant-baseline="alphabetic">生成学习草稿</text><text x="110" y="42.900390625" font-family="Helvetica, Segoe UI Emoji" font-size="20px" fill="#334155" text-anchor="middle" style="white-space: pre;" direction="ltr" dominant-baseline="alphabetic">质量下界 · 错误率上界</text></g><g stroke-linecap="round" transform="translate(630 337) rotate(0 125 45)"><path d="M22.5 0 C69.28 0, 116.07 0, 227.5 0 C242.5 0, 250 7.5, 250 22.5 C250 39.04, 250 55.58, 250 67.5 C250 82.5, 242.5 90, 227.5 90 C151.49 90, 75.47 90, 22.5 90 C7.5 90, 0 82.5, 0 67.5 C0 55.03, 0 42.55, 0 22.5 C0 7.5, 7.5 0, 22.5 0" stroke="none" stroke-width="0" fill="#fef9c3"></path><path d="M22.5 0 C73.68 0, 124.85 0, 227.5 0 M22.5 0 C94.14 0, 165.79 0, 227.5 0 M227.5 0 C242.5 0, 250 7.5, 250 22.5 M227.5 0 C242.5 0, 250 7.5, 250 22.5 M250 22.5 C250 38.84, 250 55.19, 250 67.5 M250 22.5 C250 31.68, 250 40.86, 250 67.5 M250 67.5 C250 82.5, 242.5 90, 227.5 90 M250 67.5 C250 82.5, 242.5 90, 227.5 90 M227.5 90 C156.69 90, 85.88 90, 22.5 90 M227.5 90 C159.11 90, 90.71 90, 22.5 90 M22.5 90 C7.5 90, 0 82.5, 0 67.5 M22.5 90 C7.5 90, 0 82.5, 0 67.5 M0 67.5 C0 50.35, 0 33.2, 0 22.5 M0 67.5 C0 53.16, 0 38.81, 0 22.5 M0 22.5 C0 7.5, 7.5 0, 22.5 0 M0 22.5 C0 7.5, 7.5 0, 22.5 0" stroke="#854d0e" stroke-width="2" fill="none"></path></g><g transform="translate(645 350) rotate(0 110 30)"><text x="110" y="17.900390625" font-family="Helvetica, Segoe UI Emoji" font-size="20px" fill="#334155" text-anchor="middle" style="white-space: pre;" direction="ltr" dominant-baseline="alphabetic">管理员评估与灰度</text><text x="110" y="42.900390625" font-family="Helvetica, Segoe UI Emoji" font-size="20px" fill="#334155" text-anchor="middle" style="white-space: pre;" direction="ltr" dominant-baseline="alphabetic">决定是否发布</text></g><g stroke-linecap="round" transform="translate(320 337) rotate(0 125 45)"><path d="M22.5 0 C77.48 0, 132.46 0, 227.5 0 C242.5 0, 250 7.5, 250 22.5 C250 32.32, 250 42.14, 250 67.5 C250 82.5, 242.5 90, 227.5 90 C177.96 90, 128.43 90, 22.5 90 C7.5 90, 0 82.5, 0 67.5 C0 51.13, 0 34.77, 0 22.5 C0 7.5, 7.5 0, 22.5 0" stroke="none" stroke-width="0" fill="#dcfce7"></path><path d="M22.5 0 C73.68 0, 124.86 0, 227.5 0 M22.5 0 C82.66 0, 142.82 0, 227.5 0 M227.5 0 C242.5 0, 250 7.5, 250 22.5 M227.5 0 C242.5 0, 250 7.5, 250 22.5 M250 22.5 C250 40.42, 250 58.34, 250 67.5 M250 22.5 C250 39.74, 250 56.98, 250 67.5 M250 67.5 C250 82.5, 242.5 90, 227.5 90 M250 67.5 C250 82.5, 242.5 90, 227.5 90 M227.5 90 C150.26 90, 73.02 90, 22.5 90 M227.5 90 C152.62 90, 77.74 90, 22.5 90 M22.5 90 C7.5 90, 0 82.5, 0 67.5 M22.5 90 C7.5 90, 0 82.5, 0 67.5 M0 67.5 C0 51.54, 0 35.57, 0 22.5 M0 67.5 C0 55.28, 0 43.06, 0 22.5 M0 22.5 C0 7.5, 7.5 0, 22.5 0 M0 22.5 C0 7.5, 7.5 0, 22.5 0" stroke="#166534" stroke-width="2" fill="none"></path></g><g transform="translate(335 350) rotate(0 110 30)"><text x="110" y="17.900390625" font-family="Helvetica, Segoe UI Emoji" font-size="20px" fill="#334155" text-anchor="middle" style="white-space: pre;" direction="ltr" dominant-baseline="alphabetic">发布新的 active 策略</text><text x="110" y="42.900390625" font-family="Helvetica, Segoe UI Emoji" font-size="20px" fill="#334155" text-anchor="middle" style="white-space: pre;" direction="ltr" dominant-baseline="alphabetic">原子热加载</text></g><g stroke-linecap="round" transform="translate(10 337) rotate(0 125 45)"><path d="M250 45 C250 46.47, 249.8 47.95, 249.4 49.41 C249 50.87, 248.39 52.34, 247.6 53.78 C246.8 55.22, 245.8 56.66, 244.62 58.06 C243.43 59.47, 242.05 60.86, 240.48 62.22 C238.92 63.58, 237.17 64.92, 235.24 66.21 C233.31 67.51, 231.2 68.78, 228.93 70 C226.66 71.22, 224.22 72.41, 221.63 73.55 C219.04 74.68, 216.28 75.78, 213.39 76.82 C210.5 77.86, 207.46 78.85, 204.3 79.79 C201.14 80.72, 197.84 81.6, 194.45 82.42 C191.05 83.23, 187.53 83.99, 183.92 84.69 C180.32 85.38, 176.61 86.01, 172.84 86.57 C169.06 87.14, 165.19 87.64, 161.29 88.06 C157.38 88.49, 153.39 88.85, 149.39 89.14 C145.38 89.42, 141.32 89.64, 137.25 89.78 C133.19 89.93, 129.08 90, 125 90 C120.92 90, 116.81 89.93, 112.75 89.78 C108.68 89.64, 104.62 89.42, 100.61 89.14 C96.61 88.85, 92.62 88.49, 88.71 88.06 C84.81 87.64, 80.94 87.14, 77.16 86.57 C73.39 86.01, 69.68 85.38, 66.08 84.69 C62.47 83.99, 58.95 83.23, 55.55 82.42 C52.16 81.6, 48.86 80.72, 45.7 79.79 C42.54 78.85, 39.5 77.86, 36.61 76.82 C33.72 75.78, 30.96 74.68, 28.37 73.55 C25.78 72.41, 23.34 71.22, 21.07 70 C18.8 68.78, 16.69 67.51, 14.76 66.21 C12.83 64.92, 11.08 63.58, 9.52 62.22 C7.95 60.86, 6.57 59.47, 5.38 58.06 C4.2 56.66, 3.2 55.22, 2.4 53.78 C1.61 52.34, 1 50.87, 0.6 49.41 C0.2 47.95, 0 46.47, 0 45 C0 43.53, 0.2 42.05, 0.6 40.59 C1 39.13, 1.61 37.66, 2.4 36.22 C3.2 34.78, 4.2 33.34, 5.38 31.94 C6.57 30.53, 7.95 29.14, 9.52 27.78 C11.08 26.42, 12.83 25.08, 14.76 23.79 C16.69 22.49, 18.8 21.22, 21.07 20 C23.34 18.78, 25.78 17.59, 28.37 16.45 C30.96 15.32, 33.72 14.22, 36.61 13.18 C39.5 12.14, 42.54 11.15, 45.7 10.21 C48.86 9.28, 52.16 8.4, 55.55 7.58 C58.95 6.77, 62.47 6.01, 66.08 5.31 C69.68 4.62, 73.39 3.99, 77.16 3.43 C80.94 2.86, 84.81 2.36, 88.71 1.94 C92.62 1.51, 96.61 1.15, 100.61 0.86 C104.62 0.58, 108.68 0.36, 112.75 0.22 C116.81 0.07, 120.92 0, 125 0 C129.08 0, 133.19 0.07, 137.25 0.22 C141.32 0.36, 145.38 0.58, 149.39 0.86 C153.39 1.15, 157.38 1.51, 161.29 1.94 C165.19 2.36, 169.06 2.86, 172.84 3.43 C176.61 3.99, 180.32 4.62, 183.92 5.31 C187.53 6.01, 191.05 6.77, 194.45 7.58 C197.84 8.4, 201.14 9.28, 204.3 10.21 C207.46 11.15, 210.5 12.14, 213.39 13.18 C216.28 14.22, 219.04 15.32, 221.63 16.45 C224.22 17.59, 226.66 18.78, 228.93 20 C231.2 21.22, 233.31 22.49, 235.24 23.79 C237.17 25.08, 238.92 26.42, 240.48 27.78 C242.05 29.14, 243.43 30.53, 244.62 31.94 C245.8 33.34, 246.8 34.78, 247.6 36.22 C248.39 37.66, 249 39.13, 249.4 40.59 C249.8 42.05, 249.9 44.26, 250 45 C250.1 45.74, 250.1 44.26, 250 45" stroke="none" stroke-width="0" fill="#fed7aa"></path><path d="M250 45 C250 46.47, 249.8 47.95, 249.4 49.41 C249 50.87, 248.39 52.34, 247.6 53.78 C246.8 55.22, 245.8 56.66, 244.62 58.06 C243.43 59.47, 242.05 60.86, 240.48 62.22 C238.92 63.58, 237.17 64.92, 235.24 66.21 C233.31 67.51, 231.2 68.78, 228.93 70 C226.66 71.22, 224.22 72.41, 221.63 73.55 C219.04 74.68, 216.28 75.78, 213.39 76.82 C210.5 77.86, 207.46 78.85, 204.3 79.79 C201.14 80.72, 197.84 81.6, 194.45 82.42 C191.05 83.23, 187.53 83.99, 183.92 84.69 C180.32 85.38, 176.61 86.01, 172.84 86.57 C169.06 87.14, 165.19 87.64, 161.29 88.06 C157.38 88.49, 153.39 88.85, 149.39 89.14 C145.38 89.42, 141.32 89.64, 137.25 89.78 C133.19 89.93, 129.08 90, 125 90 C120.92 90, 116.81 89.93, 112.75 89.78 C108.68 89.64, 104.62 89.42, 100.61 89.14 C96.61 88.85, 92.62 88.49, 88.71 88.06 C84.81 87.64, 80.94 87.14, 77.16 86.57 C73.39 86.01, 69.68 85.38, 66.08 84.69 C62.47 83.99, 58.95 83.23, 55.55 82.42 C52.16 81.6, 48.86 80.72, 45.7 79.79 C42.54 78.85, 39.5 77.86, 36.61 76.82 C33.72 75.78, 30.96 74.68, 28.37 73.55 C25.78 72.41, 23.34 71.22, 21.07 70 C18.8 68.78, 16.69 67.51, 14.76 66.21 C12.83 64.92, 11.08 63.58, 9.52 62.22 C7.95 60.86, 6.57 59.47, 5.38 58.06 C4.2 56.66, 3.2 55.22, 2.4 53.78 C1.61 52.34, 1 50.87, 0.6 49.41 C0.2 47.95, 0 46.47, 0 45 C0 43.53, 0.2 42.05, 0.6 40.59 C1 39.13, 1.61 37.66, 2.4 36.22 C3.2 34.78, 4.2 33.34, 5.38 31.94 C6.57 30.53, 7.95 29.14, 9.52 27.78 C11.08 26.42, 12.83 25.08, 14.76 23.79 C16.69 22.49, 18.8 21.22, 21.07 20 C23.34 18.78, 25.78 17.59, 28.37 16.45 C30.96 15.32, 33.72 14.22, 36.61 13.18 C39.5 12.14, 42.54 11.15, 45.7 10.21 C48.86 9.28, 52.16 8.4, 55.55 7.58 C58.95 6.77, 62.47 6.01, 66.08 5.31 C69.68 4.62, 73.39 3.99, 77.16 3.43 C80.94 2.86, 84.81 2.36, 88.71 1.94 C92.62 1.51, 96.61 1.15, 100.61 0.86 C104.62 0.58, 108.68 0.36, 112.75 0.22 C116.81 0.07, 120.92 0, 125 0 C129.08 0, 133.19 0.07, 137.25 0.22 C141.32 0.36, 145.38 0.58, 149.39 0.86 C153.39 1.15, 157.38 1.51, 161.29 1.94 C165.19 2.36, 169.06 2.86, 172.84 3.43 C176.61 3.99, 180.32 4.62, 183.92 5.31 C187.53 6.01, 191.05 6.77, 194.45 7.58 C197.84 8.4, 201.14 9.28, 204.3 10.21 C207.46 11.15, 210.5 12.14, 213.39 13.18 C216.28 14.22, 219.04 15.32, 221.63 16.45 C224.22 17.59, 226.66 18.78, 228.93 20 C231.2 21.22, 233.31 22.49, 235.24 23.79 C237.17 25.08, 238.92 26.42, 240.48 27.78 C242.05 29.14, 243.43 30.53, 244.62 31.94 C245.8 33.34, 246.8 34.78, 247.6 36.22 C248.39 37.66, 249 39.13, 249.4 40.59 C249.8 42.05, 249.9 44.26, 250 45 C250.1 45.74, 250.1 44.26, 250 45" stroke="#c2410c" stroke-width="2" fill="none"></path></g><g transform="translate(25 350) rotate(0 110 30)"><text x="110" y="17.900390625" font-family="Helvetica, Segoe UI Emoji" font-size="20px" fill="#334155" text-anchor="middle" style="white-space: pre;" direction="ltr" dominant-baseline="alphabetic">未来请求才使用</text><text x="110" y="42.900390625" font-family="Helvetica, Segoe UI Emoji" font-size="20px" fill="#334155" text-anchor="middle" style="white-space: pre;" direction="ltr" dominant-baseline="alphabetic">新的保守指标</text></g><g stroke-linecap="round"><g transform="translate(260 177) rotate(0 30 0)"><path d="M0 0 C14.98 0, 29.96 0, 60 0" stroke="#475569" stroke-width="2.5" fill="none" stroke-dasharray="8 10"></path></g><g transform="translate(260 177) rotate(0 30 0)"><path d="M36.51 8.55 C42.37 6.42, 48.24 4.28, 60 0" stroke="#475569" stroke-width="2.5" fill="none"></path></g><g transform="translate(260 177) rotate(0 30 0)"><path d="M36.51 -8.55 C42.37 -6.42, 48.24 -4.28, 60 0" stroke="#475569" stroke-width="2.5" fill="none"></path></g></g><mask></mask><g stroke-linecap="round"><g transform="translate(570 177) rotate(0 30 0)"><path d="M0 0 C14.98 0, 29.96 0, 60 0" stroke="#475569" stroke-width="2.5" fill="none" stroke-dasharray="8 10"></path></g><g transform="translate(570 177) rotate(0 30 0)"><path d="M36.51 8.55 C42.37 6.42, 48.24 4.28, 60 0" stroke="#475569" stroke-width="2.5" fill="none"></path></g><g transform="translate(570 177) rotate(0 30 0)"><path d="M36.51 -8.55 C42.37 -6.42, 48.24 -4.28, 60 0" stroke="#475569" stroke-width="2.5" fill="none"></path></g></g><mask></mask><g stroke-linecap="round"><g transform="translate(880 177) rotate(0 30 0)"><path d="M0 0 C14.98 0, 29.96 0, 60 0" stroke="#475569" stroke-width="2.5" fill="none" stroke-dasharray="8 10"></path></g><g transform="translate(880 177) rotate(0 30 0)"><path d="M36.51 8.55 C42.37 6.42, 48.24 4.28, 60 0" stroke="#475569" stroke-width="2.5" fill="none"></path></g><g transform="translate(880 177) rotate(0 30 0)"><path d="M36.51 -8.55 C42.37 -6.42, 48.24 -4.28, 60 0" stroke="#475569" stroke-width="2.5" fill="none"></path></g></g><mask></mask><g stroke-linecap="round"><g transform="translate(1190 177) rotate(0 30 0)"><path d="M0 0 C14.98 0, 29.96 0, 60 0" stroke="#475569" stroke-width="2.5" fill="none" stroke-dasharray="8 10"></path></g><g transform="translate(1190 177) rotate(0 30 0)"><path d="M36.51 8.55 C42.37 6.42, 48.24 4.28, 60 0" stroke="#475569" stroke-width="2.5" fill="none"></path></g><g transform="translate(1190 177) rotate(0 30 0)"><path d="M36.51 -8.55 C42.37 -6.42, 48.24 -4.28, 60 0" stroke="#475569" stroke-width="2.5" fill="none"></path></g></g><mask></mask><g stroke-linecap="round"><g transform="translate(1375 222) rotate(0 0 45)"><path d="M0 0 C0 22.47, 0 44.94, 0 90" stroke="#475569" stroke-width="2.5" fill="none" stroke-dasharray="8 10"></path></g><g transform="translate(1375 222) rotate(0 0 45)"><path d="M-8.55 66.51 C-6.42 72.37, -4.28 78.24, 0 90" stroke="#475569" stroke-width="2.5" fill="none"></path></g><g transform="translate(1375 222) rotate(0 0 45)"><path d="M8.55 66.51 C6.42 72.37, 4.28 78.24, 0 90" stroke="#475569" stroke-width="2.5" fill="none"></path></g></g><mask></mask><g stroke-linecap="round"><g transform="translate(1375 452) rotate(0 0 40)"><path d="M0 0 C0 19.98, 0 39.95, 0 80" stroke="#475569" stroke-width="2.5" fill="none" stroke-dasharray="8 10"></path></g><g transform="translate(1375 452) rotate(0 0 40)"><path d="M-8.55 56.51 C-6.42 62.37, -4.28 68.24, 0 80" stroke="#475569" stroke-width="2.5" fill="none"></path></g><g transform="translate(1375 452) rotate(0 0 40)"><path d="M8.55 56.51 C6.42 62.37, 4.28 68.24, 0 80" stroke="#475569" stroke-width="2.5" fill="none"></path></g></g><mask></mask><g stroke-linecap="round"><g transform="translate(1265 382) rotate(0 -37.5 0)"><path d="M0 0 C-18.73 0, -37.45 0, -75 0" stroke="#475569" stroke-width="2.5" fill="none" stroke-dasharray="8 10"></path></g><g transform="translate(1265 382) rotate(0 -37.5 0)"><path d="M-51.51 -8.55 C-57.37 -6.42, -63.24 -4.28, -75 0" stroke="#475569" stroke-width="2.5" fill="none"></path></g><g transform="translate(1265 382) rotate(0 -37.5 0)"><path d="M-51.51 8.55 C-57.37 6.42, -63.24 4.28, -75 0" stroke="#475569" stroke-width="2.5" fill="none"></path></g></g><mask></mask><g transform="translate(1390 482) rotate(0 15 12)"><text x="0" y="12.5302734375" font-family="Helvetica, Segoe UI Emoji" font-size="14px" fill="#64748b" text-anchor="start" style="white-space: pre;" direction="ltr" dominant-baseline="alphabetic">否</text></g><g transform="translate(1210 352) rotate(0 15 12)"><text x="0" y="12.5302734375" font-family="Helvetica, Segoe UI Emoji" font-size="14px" fill="#64748b" text-anchor="start" style="white-space: pre;" direction="ltr" dominant-baseline="alphabetic">是</text></g><g stroke-linecap="round"><g transform="translate(940 382) rotate(0 -30 0)"><path d="M0 0 C-14.98 0, -29.97 0, -60 0 M0 0 C-13.76 0, -27.53 0, -60 0" stroke="#475569" stroke-width="2" fill="none"></path></g><g transform="translate(940 382) rotate(0 -30 0)"><path d="M-36.51 -8.55 C-42.37 -6.42, -48.24 -4.28, -60 0 M-36.51 -8.55 C-41.9 -6.59, -47.29 -4.63, -60 0" stroke="#475569" stroke-width="2" fill="none"></path></g><g transform="translate(940 382) rotate(0 -30 0)"><path d="M-36.51 8.55 C-42.37 6.42, -48.24 4.28, -60 0 M-36.51 8.55 C-41.9 6.59, -47.29 4.63, -60 0" stroke="#475569" stroke-width="2" fill="none"></path></g></g><mask></mask><g stroke-linecap="round"><g transform="translate(630 382) rotate(0 -30 0)"><path d="M0 0 C-14.98 0, -29.97 0, -60 0 M0 0 C-18.08 0, -36.17 0, -60 0" stroke="#475569" stroke-width="2" fill="none"></path></g><g transform="translate(630 382) rotate(0 -30 0)"><path d="M-36.51 -8.55 C-42.37 -6.42, -48.24 -4.28, -60 0 M-36.51 -8.55 C-43.59 -5.97, -50.67 -3.4, -60 0" stroke="#475569" stroke-width="2" fill="none"></path></g><g transform="translate(630 382) rotate(0 -30 0)"><path d="M-36.51 8.55 C-42.37 6.42, -48.24 4.28, -60 0 M-36.51 8.55 C-43.59 5.97, -50.67 3.4, -60 0" stroke="#475569" stroke-width="2" fill="none"></path></g></g><mask></mask><g stroke-linecap="round"><g transform="translate(320 382) rotate(0 -30 0)"><path d="M0 0 C-14.98 0, -29.97 0, -60 0 M0 0 C-22.4 0, -44.81 0, -60 0" stroke="#475569" stroke-width="2" fill="none"></path></g><g transform="translate(320 382) rotate(0 -30 0)"><path d="M-36.51 -8.55 C-42.37 -6.42, -48.24 -4.28, -60 0 M-36.51 -8.55 C-45.28 -5.36, -54.05 -2.17, -60 0" stroke="#475569" stroke-width="2" fill="none"></path></g><g transform="translate(320 382) rotate(0 -30 0)"><path d="M-36.51 8.55 C-42.37 6.42, -48.24 4.28, -60 0 M-36.51 8.55 C-45.28 5.36, -54.05 2.17, -60 0" stroke="#475569" stroke-width="2" fill="none"></path></g></g><mask></mask><g transform="translate(10 642) rotate(0 725 14)"><text x="0" y="14.3203125" font-family="Helvetica, Segoe UI Emoji" font-size="16px" fill="#64748b" text-anchor="start" style="white-space: pre;" direction="ltr" dominant-baseline="alphabetic">质量使用单侧 95% 下界，严重错误率使用单侧 95% 上界；不使用在线 Bandit 或 Thompson Sampling。</text></g></svg>