<svg version="1.1" xmlns="http://www.w3.org/2000/svg" viewBox="0 0 1800 900" width="1800" height="900"><!-- svg-source:excalidraw --><metadata></metadata><defs><style class="style-fonts">
      </style></defs><rect x="0" y="0" width="1800" height="900" fill="#ffffff"></rect><g transform="translate(20 10) rotate(0 260 17)"><text x="0" y="24.560546875" font-family="Helvetica, Segoe UI Emoji" font-size="28px" fill="#1e293b" text-anchor="start" style="white-space: pre;" direction="ltr" dominant-baseline="alphabetic">anthropic-proxy 当前架构</text></g><g transform="translate(20 55) rotate(0 450 12)"><text x="0" y="16.3203125" font-family="Helvetica, Segoe UI Emoji" font-size="16px" fill="#64748b" text-anchor="start" style="white-space: pre;" direction="ltr" dominant-baseline="alphabetic">请求转发、可选图片预处理、过载重试与 Token 统计</text></g><g stroke-opacity="0.3" fill-opacity="0.3" stroke-linecap="round" transform="translate(300 110) rotate(0 520 390)"><path d="M32 0 C319.6 0, 607.19 0, 1008 0 C1029.33 0, 1040 10.67, 1040 32 C1040 308.4, 1040 584.8, 1040 748 C1040 769.33, 1029.33 780, 1008 780 C625.22 780, 242.43 780, 32 780 C10.67 780, 0 769.33, 0 748 C0 520.24, 0 292.48, 0 32 C0 10.67, 10.67 0, 32 0" stroke="none" stroke-width="0" fill="#f1f5f9"></path><path d="M32 0 C275.58 0, 519.16 0, 1008 0 M1008 0 C1029.33 0, 1040 10.67, 1040 32 M1040 32 C1040 213.32, 1040 394.64, 1040 748 M1040 748 C1040 769.33, 1029.33 780, 1008 780 M1008 780 C731.66 780, 455.32 780, 32 780 M32 780 C10.67 780, 0 769.33, 0 748 M0 748 C0 475.44, 0 202.89, 0 32 M0 32 C0 10.67, 10.67 0, 32 0" stroke="#475569" stroke-width="2.5" fill="none" stroke-dasharray="8 10"></path></g><g transform="translate(340 135) rotate(0 230 15)"><text x="0" y="21.48046875" font-family="Helvetica, Segoe UI Emoji" font-size="24px" fill="#334155" text-anchor="start" style="white-space: pre;" direction="ltr" dominant-baseline="alphabetic">anthropic-proxy 进程</text></g><g transform="translate(340 175) rotate(0 410 12)"><text x="0" y="16.3203125" font-family="Helvetica, Segoe UI Emoji" font-size="16px" fill="#64748b" text-anchor="start" style="white-space: pre;" direction="ltr" dominant-baseline="alphabetic">CONFIG_FILE → provider · vision · overload_rules · stats_password</text></g><g stroke-opacity="0.3" fill-opacity="0.3" stroke-linecap="round" transform="translate(1400 110) rotate(0 195 390)"><path d="M32 0 C143.39 0, 254.78 0, 358 0 C379.33 0, 390 10.67, 390 32 C390 256.66, 390 481.32, 390 748 C390 769.33, 379.33 780, 358 780 C275.64 780, 193.29 780, 32 780 C10.67 780, 0 769.33, 0 748 C0 598.07, 0 448.14, 0 32 C0 10.67, 10.67 0, 32 0" stroke="none" stroke-width="0" fill="#f1f5f9"></path><path d="M32 0 C113.36 0, 194.73 0, 358 0 M358 0 C379.33 0, 390 10.67, 390 32 M390 32 C390 259.18, 390 486.37, 390 748 M390 748 C390 769.33, 379.33 780, 358 780 M358 780 C248.58 780, 139.16 780, 32 780 M32 780 C10.67 780, 0 769.33, 0 748 M0 748 C0 471.73, 0 195.46, 0 32 M0 32 C0 10.67, 10.67 0, 32 0" stroke="#475569" stroke-width="2.5" fill="none" stroke-dasharray="8 10"></path></g><g transform="translate(1440 135) rotate(0 155 29)"><text x="0" y="35.48046875" font-family="Helvetica, Segoe UI Emoji" font-size="24px" fill="#334155" text-anchor="start" style="white-space: pre;" direction="ltr" dominant-baseline="alphabetic">同一 Provider / upstream</text></g><g stroke-linecap="round" transform="translate(10 345) rotate(0 115 60)"><path d="M30 0 C83.89 0, 137.78 0, 200 0 C220 0, 230 10, 230 30 C230 47.81, 230 65.63, 230 90 C230 110, 220 120, 200 120 C143.73 120, 87.46 120, 30 120 C10 120, 0 110, 0 90 C0 68.73, 0 47.46, 0 30 C0 10, 10 0, 30 0" stroke="none" stroke-width="0" fill="#dbeafe"></path><path d="M30 0 C80.85 0, 131.7 0, 200 0 M30 0 C69.98 0, 109.97 0, 200 0 M200 0 C220 0, 230 10, 230 30 M200 0 C220 0, 230 10, 230 30 M230 30 C230 46.73, 230 63.45, 230 90 M230 30 C230 53.74, 230 77.49, 230 90 M230 90 C230 110, 220 120, 200 120 M230 90 C230 110, 220 120, 200 120 M200 120 C147.13 120, 94.27 120, 30 120 M200 120 C152.07 120, 104.15 120, 30 120 M30 120 C10 120, 0 110, 0 90 M30 120 C10 120, 0 110, 0 90 M0 90 C0 68.98, 0 47.96, 0 30 M0 90 C0 77.39, 0 64.79, 0 30 M0 30 C0 10, 10 0, 30 0 M0 30 C0 10, 10 0, 30 0" stroke="#1e40af" stroke-width="2" fill="none"></path></g><g transform="translate(30 366) rotate(0 95 39)"><text x="95" y="18.400390625" font-family="Helvetica, Segoe UI Emoji" font-size="20px" fill="#334155" text-anchor="middle" style="white-space: pre;" direction="ltr" dominant-baseline="alphabetic">客户端</text><text x="95" y="44.400390625" font-family="Helvetica, Segoe UI Emoji" font-size="20px" fill="#334155" text-anchor="middle" style="white-space: pre;" direction="ltr" dominant-baseline="alphabetic">Claude Code · API</text><text x="95" y="70.400390625" font-family="Helvetica, Segoe UI Emoji" font-size="20px" fill="#334155" text-anchor="middle" style="white-space: pre;" direction="ltr" dominant-baseline="alphabetic">管理浏览器</text></g><g stroke-linecap="round" transform="translate(360 345) rotate(0 120 60)"><path d="M30 0 C94.26 0, 158.51 0, 210 0 C230 0, 240 10, 240 30 C240 50.86, 240 71.71, 240 90 C240 110, 230 120, 210 120 C173.67 120, 137.34 120, 30 120 C10 120, 0 110, 0 90 C0 75.54, 0 61.08, 0 30 C0 10, 10 0, 30 0" stroke="none" stroke-width="0" fill="#e0f2fe"></path><path d="M30 0 C83.84 0, 137.69 0, 210 0 M30 0 C98.25 0, 166.5 0, 210 0 M210 0 C230 0, 240 10, 240 30 M210 0 C230 0, 240 10, 240 30 M240 30 C240 48.83, 240 67.65, 240 90 M240 30 C240 52.49, 240 74.97, 240 90 M240 90 C240 110, 230 120, 210 120 M240 90 C240 110, 230 120, 210 120 M210 120 C148.38 120, 86.77 120, 30 120 M210 120 C153.56 120, 97.12 120, 30 120 M30 120 C10 120, 0 110, 0 90 M30 120 C10 120, 0 110, 0 90 M0 90 C0 70.56, 0 51.12, 0 30 M0 90 C0 68.22, 0 46.45, 0 30 M0 30 C0 10, 10 0, 30 0 M0 30 C0 10, 10 0, 30 0" stroke="#0369a1" stroke-width="2" fill="none"></path></g><g transform="translate(380 370) rotate(0 100 35)"><text x="100" y="17.067057291666664" font-family="Helvetica, Segoe UI Emoji" font-size="20px" fill="#334155" text-anchor="middle" style="white-space: pre;" direction="ltr" dominant-baseline="alphabetic">HTTP Server / Router</text><text x="100" y="40.40039062499999" font-family="Helvetica, Segoe UI Emoji" font-size="20px" fill="#334155" text-anchor="middle" style="white-space: pre;" direction="ltr" dominant-baseline="alphabetic">读取请求体</text><text x="100" y="63.73372395833332" font-family="Helvetica, Segoe UI Emoji" font-size="20px" fill="#334155" text-anchor="middle" style="white-space: pre;" direction="ltr" dominant-baseline="alphabetic">选择当前 Provider</text></g><g stroke-linecap="round" transform="translate(670 330) rotate(0 105 75)"><path d="M106 0 L210 76 L106 150 L0 76" stroke="none" stroke-width="0" fill="#fef9c3" fill-rule="evenodd"></path><path d="M106 0 C137.11 22.73, 168.22 45.47, 210 76 M106 0 C139.61 24.56, 173.22 49.12, 210 76 M210 76 C182.5 95.57, 155 115.13, 106 150 M210 76 C169.04 105.15, 128.07 134.29, 106 150 M106 150 C64.77 121.22, 23.55 92.44, 0 76 M106 150 C79.3 131.36, 52.6 112.72, 0 76 M0 76 C25.48 57.73, 50.96 39.46, 106 0 M0 76 C25.56 57.67, 51.12 39.35, 106 0" stroke="#854d0e" stroke-width="2" fill="none"></path></g><g transform="translate(705 372) rotate(0 70 33)"><text x="70" y="21.900390625" font-family="Helvetica, Segoe UI Emoji" font-size="20px" fill="#334155" text-anchor="middle" style="white-space: pre;" direction="ltr" dominant-baseline="alphabetic">Anthropic 图片</text><text x="70" y="54.900390625" font-family="Helvetica, Segoe UI Emoji" font-size="20px" fill="#334155" text-anchor="middle" style="white-space: pre;" direction="ltr" dominant-baseline="alphabetic">预处理？</text></g><g stroke-linecap="round" transform="translate(940 215) rotate(0 150 65)"><path d="M32 0 C87.91 0, 143.82 0, 268 0 C289.33 0, 300 10.67, 300 32 C300 48.44, 300 64.87, 300 98 C300 119.33, 289.33 130, 268 130 C186.93 130, 105.86 130, 32 130 C10.67 130, 0 119.33, 0 98 C0 83.88, 0 69.76, 0 32 C0 10.67, 10.67 0, 32 0" stroke="none" stroke-width="0" fill="#e0f2fe"></path><path d="M32 0 C102.6 0, 173.2 0, 268 0 M32 0 C95.05 0, 158.1 0, 268 0 M268 0 C289.33 0, 300 10.67, 300 32 M268 0 C289.33 0, 300 10.67, 300 32 M300 32 C300 57.33, 300 82.66, 300 98 M300 32 C300 53.97, 300 75.94, 300 98 M300 98 C300 119.33, 289.33 130, 268 130 M300 98 C300 119.33, 289.33 130, 268 130 M268 130 C219.62 130, 171.24 130, 32 130 M268 130 C179.07 130, 90.13 130, 32 130 M32 130 C10.67 130, 0 119.33, 0 98 M32 130 C10.67 130, 0 119.33, 0 98 M0 98 C0 80.1, 0 62.2, 0 32 M0 98 C0 80.27, 0 62.55, 0 32 M0 32 C0 10.67, 10.67 0, 32 0 M0 32 C0 10.67, 10.67 0, 32 0" stroke="#0369a1" stroke-width="2" fill="none"></path></g><g transform="translate(960 236) rotate(0 130 44)"><text x="130" y="20.067057291666664" font-family="Helvetica, Segoe UI Emoji" font-size="20px" fill="#334155" text-anchor="middle" style="white-space: pre;" direction="ltr" dominant-baseline="alphabetic">Vision Preprocessor</text><text x="130" y="49.400390625" font-family="Helvetica, Segoe UI Emoji" font-size="20px" fill="#334155" text-anchor="middle" style="white-space: pre;" direction="ltr" dominant-baseline="alphabetic">解析与文本替换</text><text x="130" y="78.73372395833333" font-family="Helvetica, Segoe UI Emoji" font-size="20px" fill="#334155" text-anchor="middle" style="white-space: pre;" direction="ltr" dominant-baseline="alphabetic">TTL/LRU · 并发合并 · 超时</text></g><g stroke-linecap="round" transform="translate(940 385) rotate(0 150 37.5)"><path d="M18.75 0 C91.43 0, 164.11 0, 281.25 0 C293.75 0, 300 6.25, 300 18.75 C300 29.99, 300 41.23, 300 56.25 C300 68.75, 293.75 75, 281.25 75 C224.98 75, 168.71 75, 18.75 75 C6.25 75, 0 68.75, 0 56.25 C0 44.98, 0 33.72, 0 18.75 C0 6.25, 6.25 0, 18.75 0" stroke="none" stroke-width="0" fill="#fee2e2"></path><path d="M18.75 0 C97.28 0, 175.81 0, 281.25 0 M18.75 0 C74.17 0, 129.6 0, 281.25 0 M281.25 0 C293.75 0, 300 6.25, 300 18.75 M281.25 0 C293.75 0, 300 6.25, 300 18.75 M300 18.75 C300 26.95, 300 35.16, 300 56.25 M300 18.75 C300 30.45, 300 42.14, 300 56.25 M300 56.25 C300 68.75, 293.75 75, 281.25 75 M300 56.25 C300 68.75, 293.75 75, 281.25 75 M281.25 75 C219.21 75, 157.17 75, 18.75 75 M281.25 75 C226.52 75, 171.8 75, 18.75 75 M18.75 75 C6.25 75, 0 68.75, 0 56.25 M18.75 75 C6.25 75, 0 68.75, 0 56.25 M0 56.25 C0 47.07, 0 37.89, 0 18.75 M0 56.25 C0 47.95, 0 39.64, 0 18.75 M0 18.75 C0 6.25, 6.25 0, 18.75 0 M0 18.75 C0 6.25, 6.25 0, 18.75 0" stroke="#991b1b" stroke-width="2" fill="none"></path></g><g transform="translate(960 400) rotate(0 130 22.5)"><text x="130" y="15.5703125" font-family="Helvetica, Segoe UI Emoji" font-size="16px" fill="#991b1b" text-anchor="middle" style="white-space: pre;" direction="ltr" dominant-baseline="alphabetic">任一识图失败 → 400 / 502</text><text x="130" y="38.0703125" font-family="Helvetica, Segoe UI Emoji" font-size="16px" fill="#991b1b" text-anchor="middle" style="white-space: pre;" direction="ltr" dominant-baseline="alphabetic">不发送主请求</text></g><g stroke-linecap="round" transform="translate(940 530) rotate(0 150 65)"><path d="M32 0 C106.78 0, 181.55 0, 268 0 C289.33 0, 300 10.67, 300 32 C300 55.13, 300 78.26, 300 98 C300 119.33, 289.33 130, 268 130 C200.69 130, 133.38 130, 32 130 C10.67 130, 0 119.33, 0 98 C0 72.47, 0 46.93, 0 32 C0 10.67, 10.67 0, 32 0" stroke="none" stroke-width="0" fill="#fef9c3"></path><path d="M32 0 C102.6 0, 173.21 0, 268 0 M32 0 C115.81 0, 199.62 0, 268 0 M268 0 C289.33 0, 300 10.67, 300 32 M268 0 C289.33 0, 300 10.67, 300 32 M300 32 C300 48.75, 300 65.5, 300 98 M300 32 C300 51.2, 300 70.41, 300 98 M300 98 C300 119.33, 289.33 130, 268 130 M300 98 C300 119.33, 289.33 130, 268 130 M268 130 C204.82 130, 141.65 130, 32 130 M268 130 C211.33 130, 154.66 130, 32 130 M32 130 C10.67 130, 0 119.33, 0 98 M32 130 C10.67 130, 0 119.33, 0 98 M0 98 C0 83.58, 0 69.17, 0 32 M0 98 C0 73.3, 0 48.6, 0 32 M0 32 C0 10.67, 10.67 0, 32 0 M0 32 C0 10.67, 10.67 0, 32 0" stroke="#854d0e" stroke-width="2" fill="none"></path></g><g transform="translate(960 555) rotate(0 130 40)"><text x="130" y="25.400390625" font-family="Helvetica, Segoe UI Emoji" font-size="20px" fill="#334155" text-anchor="middle" style="white-space: pre;" direction="ltr" dominant-baseline="alphabetic">主请求转发与流式响应</text><text x="130" y="65.400390625" font-family="Helvetica, Segoe UI Emoji" font-size="20px" fill="#334155" text-anchor="middle" style="white-space: pre;" direction="ltr" dominant-baseline="alphabetic">过载匹配 · 线性退避 · 重试</text></g><g stroke-linecap="round" transform="translate(985 745) rotate(0 120 50)"><path d="M25 0 C94.45 0, 163.9 0, 215 0 C231.67 0, 240 8.33, 240 25 C240 39.13, 240 53.27, 240 75 C240 91.67, 231.67 100, 215 100 C152.53 100, 90.07 100, 25 100 C8.33 100, 0 91.67, 0 75 C0 64.49, 0 53.99, 0 25 C0 8.33, 8.33 0, 25 0" stroke="none" stroke-width="0" fill="#dcfce7"></path><path d="M25 0 C91.25 0, 157.5 0, 215 0 M25 0 C66.19 0, 107.38 0, 215 0 M215 0 C231.67 0, 240 8.33, 240 25 M215 0 C231.67 0, 240 8.33, 240 25 M240 25 C240 40.47, 240 55.94, 240 75 M240 25 C240 44.94, 240 64.88, 240 75 M240 75 C240 91.67, 231.67 100, 215 100 M240 75 C240 91.67, 231.67 100, 215 100 M215 100 C146.86 100, 78.72 100, 25 100 M215 100 C155.16 100, 95.31 100, 25 100 M25 100 C8.33 100, 0 91.67, 0 75 M25 100 C8.33 100, 0 91.67, 0 75 M0 75 C0 60.89, 0 46.79, 0 25 M0 75 C0 61.15, 0 47.31, 0 25 M0 25 C0 8.33, 8.33 0, 25 0 M0 25 C0 8.33, 8.33 0, 25 0" stroke="#166534" stroke-width="2" fill="none"></path></g><g transform="translate(1005 765) rotate(0 100 30)"><text x="100" y="20.400390625" font-family="Helvetica, Segoe UI Emoji" font-size="20px" fill="#334155" text-anchor="middle" style="white-space: pre;" direction="ltr" dominant-baseline="alphabetic">异步 Usage 解析</text><text x="100" y="50.400390625" font-family="Helvetica, Segoe UI Emoji" font-size="20px" fill="#334155" text-anchor="middle" style="white-space: pre;" direction="ltr" dominant-baseline="alphabetic">主请求 + 影子请求</text></g><g stroke-linecap="round" transform="translate(690 740) rotate(0 110 50)"><path d="M220 50 C220 51.74, 219.8 53.49, 219.4 55.23 C219 56.96, 218.39 58.69, 217.6 60.4 C216.8 62.1, 215.8 63.79, 214.62 65.45 C213.43 67.11, 212.05 68.75, 210.49 70.34 C208.93 71.93, 207.18 73.49, 205.26 75 C203.35 76.51, 201.24 77.98, 198.99 79.39 C196.74 80.8, 194.31 82.16, 191.75 83.46 C189.18 84.75, 186.45 85.99, 183.6 87.16 C180.76 88.32, 177.76 89.43, 174.66 90.45 C171.56 91.47, 168.32 92.43, 165 93.3 C161.68 94.17, 158.24 94.97, 154.74 95.68 C151.24 96.39, 147.64 97.01, 143.99 97.55 C140.35 98.09, 136.62 98.55, 132.87 98.91 C129.12 99.27, 125.31 99.54, 121.5 99.73 C117.69 99.91, 113.83 100, 110 100 C106.17 100, 102.31 99.91, 98.5 99.73 C94.69 99.54, 90.88 99.27, 87.13 98.91 C83.38 98.55, 79.65 98.09, 76.01 97.55 C72.36 97.01, 68.76 96.39, 65.26 95.68 C61.76 94.97, 58.32 94.17, 55 93.3 C51.68 92.43, 48.44 91.47, 45.34 90.45 C42.24 89.43, 39.24 88.32, 36.4 87.16 C33.55 85.99, 30.82 84.75, 28.25 83.46 C25.69 82.16, 23.26 80.8, 21.01 79.39 C18.76 77.98, 16.65 76.51, 14.74 75 C12.82 73.49, 11.07 71.93, 9.51 70.34 C7.95 68.75, 6.57 67.11, 5.38 65.45 C4.2 63.79, 3.2 62.1, 2.4 60.4 C1.61 58.69, 1 56.96, 0.6 55.23 C0.2 53.49, 0 51.74, 0 50 C0 48.26, 0.2 46.51, 0.6 44.77 C1 43.04, 1.61 41.31, 2.4 39.6 C3.2 37.9, 4.2 36.21, 5.38 34.55 C6.57 32.89, 7.95 31.25, 9.51 29.66 C11.07 28.07, 12.82 26.51, 14.74 25 C16.65 23.49, 18.76 22.02, 21.01 20.61 C23.26 19.2, 25.69 17.84, 28.25 16.54 C30.82 15.25, 33.55 14.01, 36.4 12.84 C39.24 11.68, 42.24 10.57, 45.34 9.55 C48.44 8.53, 51.68 7.57, 55 6.7 C58.32 5.83, 61.76 5.03, 65.26 4.32 C68.76 3.61, 72.36 2.99, 76.01 2.45 C79.65 1.91, 83.38 1.45, 87.13 1.09 C90.88 0.73, 94.69 0.46, 98.5 0.27 C102.31 0.09, 106.17 0, 110 0 C113.83 0, 117.69 0.09, 121.5 0.27 C125.31 0.46, 129.12 0.73, 132.87 1.09 C136.62 1.45, 140.35 1.91, 143.99 2.45 C147.64 2.99, 151.24 3.61, 154.74 4.32 C158.24 5.03, 161.68 5.83, 165 6.7 C168.32 7.57, 171.56 8.53, 174.66 9.55 C177.76 10.57, 180.76 11.68, 183.6 12.84 C186.45 14.01, 189.18 15.25, 191.75 16.54 C194.31 17.84, 196.74 19.2, 198.99 20.61 C201.24 22.02, 203.35 23.49, 205.26 25 C207.18 26.51, 208.93 28.07, 210.49 29.66 C212.05 31.25, 213.43 32.89, 214.62 34.55 C215.8 36.21, 216.8 37.9, 217.6 39.6 C218.39 41.31, 219 43.04, 219.4 44.77 C219.8 46.51, 219.9 49.13, 220 50 C220.1 50.87, 220.1 49.13, 220 50" stroke="none" stroke-width="0" fill="#dcfce7"></path><path d="M220 50 C220 51.74, 219.8 53.49, 219.4 55.23 C219 56.96, 218.39 58.69, 217.6 60.4 C216.8 62.1, 215.8 63.79, 214.62 65.45 C213.43 67.11, 212.05 68.75, 210.49 70.34 C208.93 71.93, 207.18 73.49, 205.26 75 C203.35 76.51, 201.24 77.98, 198.99 79.39 C196.74 80.8, 194.31 82.16, 191.75 83.46 C189.18 84.75, 186.45 85.99, 183.6 87.16 C180.76 88.32, 177.76 89.43, 174.66 90.45 C171.56 91.47, 168.32 92.43, 165 93.3 C161.68 94.17, 158.24 94.97, 154.74 95.68 C151.24 96.39, 147.64 97.01, 143.99 97.55 C140.35 98.09, 136.62 98.55, 132.87 98.91 C129.12 99.27, 125.31 99.54, 121.5 99.73 C117.69 99.91, 113.83 100, 110 100 C106.17 100, 102.31 99.91, 98.5 99.73 C94.69 99.54, 90.88 99.27, 87.13 98.91 C83.38 98.55, 79.65 98.09, 76.01 97.55 C72.36 97.01, 68.76 96.39, 65.26 95.68 C61.76 94.97, 58.32 94.17, 55 93.3 C51.68 92.43, 48.44 91.47, 45.34 90.45 C42.24 89.43, 39.24 88.32, 36.4 87.16 C33.55 85.99, 30.82 84.75, 28.25 83.46 C25.69 82.16, 23.26 80.8, 21.01 79.39 C18.76 77.98, 16.65 76.51, 14.74 75 C12.82 73.49, 11.07 71.93, 9.51 70.34 C7.95 68.75, 6.57 67.11, 5.38 65.45 C4.2 63.79, 3.2 62.1, 2.4 60.4 C1.61 58.69, 1 56.96, 0.6 55.23 C0.2 53.49, 0 51.74, 0 50 C0 48.26, 0.2 46.51, 0.6 44.77 C1 43.04, 1.61 41.31, 2.4 39.6 C3.2 37.9, 4.2 36.21, 5.38 34.55 C6.57 32.89, 7.95 31.25, 9.51 29.66 C11.07 28.07, 12.82 26.51, 14.74 25 C16.65 23.49, 18.76 22.02, 21.01 20.61 C23.26 19.2, 25.69 17.84, 28.25 16.54 C30.82 15.25, 33.55 14.01, 36.4 12.84 C39.24 11.68, 42.24 10.57, 45.34 9.55 C48.44 8.53, 51.68 7.57, 55 6.7 C58.32 5.83, 61.76 5.03, 65.26 4.32 C68.76 3.61, 72.36 2.99, 76.01 2.45 C79.65 1.91, 83.38 1.45, 87.13 1.09 C90.88 0.73, 94.69 0.46, 98.5 0.27 C102.31 0.09, 106.17 0, 110 0 C113.83 0, 117.69 0.09, 121.5 0.27 C125.31 0.46, 129.12 0.73, 132.87 1.09 C136.62 1.45, 140.35 1.91, 143.99 2.45 C147.64 2.99, 151.24 3.61, 154.74 4.32 C158.24 5.03, 161.68 5.83, 165 6.7 C168.32 7.57, 171.56 8.53, 174.66 9.55 C177.76 10.57, 180.76 11.68, 183.6 12.84 C186.45 14.01, 189.18 15.25, 191.75 16.54 C194.31 17.84, 196.74 19.2, 198.99 20.61 C201.24 22.02, 203.35 23.49, 205.26 25 C207.18 26.51, 208.93 28.07, 210.49 29.66 C212.05 31.25, 213.43 32.89, 214.62 34.55 C215.8 36.21, 216.8 37.9, 217.6 39.6 C218.39 41.31, 219 43.04, 219.4 44.77 C219.8 46.51, 219.9 49.13, 220 50 C220.1 50.87, 220.1 49.13, 220 50" stroke="#166534" stroke-width="2" fill="none"></path></g><g transform="translate(720 766) rotate(0 80 24)"><text x="80" y="17.400390625" font-family="Helvetica, Segoe UI Emoji" font-size="20px" fill="#334155" text-anchor="middle" style="white-space: pre;" direction="ltr" dominant-baseline="alphabetic">SQLite</text><text x="80" y="41.400390625" font-family="Helvetica, Segoe UI Emoji" font-size="20px" fill="#334155" text-anchor="middle" style="white-space: pre;" direction="ltr" dominant-baseline="alphabetic">Token 用量</text></g><g stroke-linecap="round" transform="translate(360 715) rotate(0 125 67.5)"><path d="M32 0 C77.66 0, 123.31 0, 218 0 C239.33 0, 250 10.67, 250 32 C250 59.27, 250 86.54, 250 103 C250 124.33, 239.33 135, 218 135 C167.69 135, 117.39 135, 32 135 C10.67 135, 0 124.33, 0 103 C0 75.8, 0 48.6, 0 32 C0 10.67, 10.67 0, 32 0" stroke="none" stroke-width="0" fill="#dbeafe"></path><path d="M32 0 C96.86 0, 161.72 0, 218 0 M32 0 C88.69 0, 145.37 0, 218 0 M218 0 C239.33 0, 250 10.67, 250 32 M218 0 C239.33 0, 250 10.67, 250 32 M250 32 C250 58.94, 250 85.88, 250 103 M250 32 C250 57.34, 250 82.68, 250 103 M250 103 C250 124.33, 239.33 135, 218 135 M250 103 C250 124.33, 239.33 135, 218 135 M218 135 C176.84 135, 135.67 135, 32 135 M218 135 C147.65 135, 77.29 135, 32 135 M32 135 C10.67 135, 0 124.33, 0 103 M32 135 C10.67 135, 0 124.33, 0 103 M0 103 C0 86.72, 0 70.43, 0 32 M0 103 C0 75.84, 0 48.67, 0 32 M0 32 C0 10.67, 10.67 0, 32 0 M0 32 C0 10.67, 10.67 0, 32 0" stroke="#1e40af" stroke-width="2" fill="none"></path></g><g transform="translate(380 740) rotate(0 105 42.5)"><text x="105" y="19.567057291666664" font-family="Helvetica, Segoe UI Emoji" font-size="20px" fill="#334155" text-anchor="middle" style="white-space: pre;" direction="ltr" dominant-baseline="alphabetic">/stats · /stats/data</text><text x="105" y="47.90039062499999" font-family="Helvetica, Segoe UI Emoji" font-size="20px" fill="#334155" text-anchor="middle" style="white-space: pre;" direction="ltr" dominant-baseline="alphabetic">Dashboard + JSON</text><text x="105" y="76.23372395833331" font-family="Helvetica, Segoe UI Emoji" font-size="20px" fill="#334155" text-anchor="middle" style="white-space: pre;" direction="ltr" dominant-baseline="alphabetic">HTTP Basic Auth</text></g><g stroke-linecap="round" transform="translate(1450 220) rotate(0 140 62.5)"><path d="M31.25 0 C93.33 0, 155.41 0, 248.75 0 C269.58 0, 280 10.42, 280 31.25 C280 45.93, 280 60.6, 280 93.75 C280 114.58, 269.58 125, 248.75 125 C174.52 125, 100.28 125, 31.25 125 C10.42 125, 0 114.58, 0 93.75 C0 76.9, 0 60.06, 0 31.25 C0 10.42, 10.42 0, 31.25 0" stroke="none" stroke-width="0" fill="#f3e8ff"></path><path d="M31.25 0 C107.09 0, 182.94 0, 248.75 0 M31.25 0 C85.35 0, 139.46 0, 248.75 0 M248.75 0 C269.58 0, 280 10.42, 280 31.25 M248.75 0 C269.58 0, 280 10.42, 280 31.25 M280 31.25 C280 44.65, 280 58.05, 280 93.75 M280 31.25 C280 52.25, 280 73.25, 280 93.75 M280 93.75 C280 114.58, 269.58 125, 248.75 125 M280 93.75 C280 114.58, 269.58 125, 248.75 125 M248.75 125 C193.8 125, 138.84 125, 31.25 125 M248.75 125 C203.1 125, 157.45 125, 31.25 125 M31.25 125 C10.42 125, 0 114.58, 0 93.75 M31.25 125 C10.42 125, 0 114.58, 0 93.75 M0 93.75 C0 81.06, 0 68.38, 0 31.25 M0 93.75 C0 72.79, 0 51.82, 0 31.25 M0 31.25 C0 10.42, 10.42 0, 31.25 0 M0 31.25 C0 10.42, 10.42 0, 31.25 0" stroke="#6b21a8" stroke-width="2" fill="none"></path></g><g transform="translate(1470 244) rotate(0 120 38.5)"><text x="120" y="18.233723958333336" font-family="Helvetica, Segoe UI Emoji" font-size="20px" fill="#334155" text-anchor="middle" style="white-space: pre;" direction="ltr" dominant-baseline="alphabetic">影子识图模型</text><text x="120" y="43.900390625" font-family="Helvetica, Segoe UI Emoji" font-size="20px" fill="#334155" text-anchor="middle" style="white-space: pre;" direction="ltr" dominant-baseline="alphabetic">vision.model</text><text x="120" y="69.56705729166667" font-family="Helvetica, Segoe UI Emoji" font-size="20px" fill="#334155" text-anchor="middle" style="white-space: pre;" direction="ltr" dominant-baseline="alphabetic">非流式 /v1/messages</text></g><g stroke-linecap="round" transform="translate(1450 390) rotate(0 140 47.5)"><path d="M23.75 0 C99.4 0, 175.06 0, 256.25 0 C272.08 0, 280 7.92, 280 23.75 C280 37.31, 280 50.87, 280 71.25 C280 87.08, 272.08 95, 256.25 95 C206.92 95, 157.6 95, 23.75 95 C7.92 95, 0 87.08, 0 71.25 C0 54.34, 0 37.43, 0 23.75 C0 7.92, 7.92 0, 23.75 0" stroke="none" stroke-width="0" fill="#fef9c3"></path><path d="M23.75 0 C104.83 0, 185.9 0, 256.25 0 M23.75 0 C115.06 0, 206.38 0, 256.25 0 M256.25 0 C272.08 0, 280 7.92, 280 23.75 M256.25 0 C272.08 0, 280 7.92, 280 23.75 M280 23.75 C280 35.6, 280 47.44, 280 71.25 M280 23.75 C280 38.71, 280 53.68, 280 71.25 M280 71.25 C280 87.08, 272.08 95, 256.25 95 M280 71.25 C280 87.08, 272.08 95, 256.25 95 M256.25 95 C190.22 95, 124.19 95, 23.75 95 M256.25 95 C200.1 95, 143.94 95, 23.75 95 M23.75 95 C7.92 95, 0 87.08, 0 71.25 M23.75 95 C7.92 95, 0 87.08, 0 71.25 M0 71.25 C0 53.36, 0 35.47, 0 23.75 M0 71.25 C0 57.56, 0 43.86, 0 23.75 M0 23.75 C0 7.92, 7.92 0, 23.75 0 M0 23.75 C0 7.92, 7.92 0, 23.75 0" stroke="#854d0e" stroke-width="2" fill="none"></path></g><g transform="translate(1465 405) rotate(0 125 32.5)"><text x="125" y="14.613606770833334" font-family="Helvetica, Segoe UI Emoji" font-size="14px" fill="#334155" text-anchor="middle" style="white-space: pre;" direction="ltr" dominant-baseline="alphabetic">影子请求仅透传</text><text x="125" y="36.2802734375" font-family="Helvetica, Segoe UI Emoji" font-size="14px" fill="#334155" text-anchor="middle" style="white-space: pre;" direction="ltr" dominant-baseline="alphabetic">Authorization · X-Api-Key</text><text x="125" y="57.94694010416667" font-family="Helvetica, Segoe UI Emoji" font-size="14px" fill="#334155" text-anchor="middle" style="white-space: pre;" direction="ltr" dominant-baseline="alphabetic">Anthropic-Version（无 Beta）</text></g><g stroke-linecap="round" transform="translate(1450 530) rotate(0 140 65)"><path d="M32 0 C110.92 0, 189.84 0, 248 0 C269.33 0, 280 10.67, 280 32 C280 54.19, 280 76.38, 280 98 C280 119.33, 269.33 130, 248 130 C186.87 130, 125.75 130, 32 130 C10.67 130, 0 119.33, 0 98 C0 81.99, 0 65.99, 0 32 C0 10.67, 10.67 0, 32 0" stroke="none" stroke-width="0" fill="#f3e8ff"></path><path d="M32 0 C107.32 0, 182.65 0, 248 0 M32 0 C104.73 0, 177.47 0, 248 0 M248 0 C269.33 0, 280 10.67, 280 32 M248 0 C269.33 0, 280 10.67, 280 32 M280 32 C280 50.77, 280 69.54, 280 98 M280 32 C280 51.41, 280 70.82, 280 98 M280 98 C280 119.33, 269.33 130, 248 130 M280 98 C280 119.33, 269.33 130, 248 130 M248 130 C179.89 130, 111.77 130, 32 130 M248 130 C189 130, 129.99 130, 32 130 M32 130 C10.67 130, 0 119.33, 0 98 M32 130 C10.67 130, 0 119.33, 0 98 M0 98 C0 74.89, 0 51.77, 0 32 M0 98 C0 82.09, 0 66.17, 0 32 M0 32 C0 10.67, 10.67 0, 32 0 M0 32 C0 10.67, 10.67 0, 32 0" stroke="#6b21a8" stroke-width="2" fill="none"></path></g><g transform="translate(1470 557) rotate(0 120 38)"><text x="120" y="18.067057291666664" font-family="Helvetica, Segoe UI Emoji" font-size="20px" fill="#334155" text-anchor="middle" style="white-space: pre;" direction="ltr" dominant-baseline="alphabetic">主模型 / API</text><text x="120" y="43.400390625" font-family="Helvetica, Segoe UI Emoji" font-size="20px" fill="#334155" text-anchor="middle" style="white-space: pre;" direction="ltr" dominant-baseline="alphabetic">Anthropic 或 OpenAI</text><text x="120" y="68.73372395833333" font-family="Helvetica, Segoe UI Emoji" font-size="20px" fill="#334155" text-anchor="middle" style="white-space: pre;" direction="ltr" dominant-baseline="alphabetic">原路径转发</text></g><g stroke-linecap="round"><g transform="translate(240 385) rotate(0 60 0)"><path d="M0 0 C20 0, 100 0, 120 0 M0 0 C20 0, 100 0, 120 0" stroke="#1e40af" stroke-width="2" fill="none"></path></g><g transform="translate(240 385) rotate(0 60 0)"><path d="M96.51 8.55 C105.86 5.15, 115.22 1.74, 120 0 M96.51 8.55 C105.87 5.14, 115.23 1.74, 120 0" stroke="#1e40af" stroke-width="2" fill="none"></path></g><g transform="translate(240 385) rotate(0 60 0)"><path d="M96.51 -8.55 C105.86 -5.15, 115.22 -1.74, 120 0 M96.51 -8.55 C105.87 -5.14, 115.23 -1.74, 120 0" stroke="#1e40af" stroke-width="2" fill="none"></path></g></g><mask></mask><g stroke-linecap="round"><g transform="translate(600 385) rotate(0 35 0)"><path d="M0 0 C11.67 0, 58.33 0, 70 0 M0 0 C11.67 0, 58.33 0, 70 0" stroke="#1e40af" stroke-width="2" fill="none"></path></g><g transform="translate(600 385) rotate(0 35 0)"><path d="M46.51 8.55 C55.86 5.15, 65.22 1.74, 70 0 M46.51 8.55 C52.86 6.24, 59.21 3.93, 70 0" stroke="#1e40af" stroke-width="2" fill="none"></path></g><g transform="translate(600 385) rotate(0 35 0)"><path d="M46.51 -8.55 C55.86 -5.15, 65.22 -1.74, 70 0 M46.51 -8.55 C52.86 -6.24, 59.21 -3.93, 70 0" stroke="#1e40af" stroke-width="2" fill="none"></path></g></g><mask></mask><g stroke-linecap="round"><g transform="translate(775 330) rotate(0 82.5 -25)"><path d="M0 0 C10.83 -8.33, 37.5 -41.67, 65 -50 C92.5 -58.33, 148.33 -50, 165 -50 M0 0 C10.83 -8.33, 37.5 -41.67, 65 -50 C92.5 -58.33, 148.33 -50, 165 -50" stroke="#0369a1" stroke-width="2" fill="none"></path></g><g transform="translate(775 330) rotate(0 82.5 -25)"><path d="M140.99 -43.02 C150.55 -45.8, 160.11 -48.58, 165 -50 M140.99 -43.02 C149.21 -45.41, 157.43 -47.8, 165 -50" stroke="#0369a1" stroke-width="2" fill="none"></path></g><g transform="translate(775 330) rotate(0 82.5 -25)"><path d="M142.12 -60.09 C151.23 -56.07, 160.34 -52.05, 165 -50 M142.12 -60.09 C149.96 -56.63, 157.79 -53.18, 165 -50" stroke="#0369a1" stroke-width="2" fill="none"></path></g></g><mask></mask><g stroke-linecap="round"><g transform="translate(775 480) rotate(0 82.5 62.5)"><path d="M0 0 C0 20.83, -27.5 104.17, 0 125 C27.5 145.83, 137.5 125, 165 125 M0 0 C0 20.83, -27.5 104.17, 0 125 C27.5 145.83, 137.5 125, 165 125" stroke="#854d0e" stroke-width="2" fill="none"></path></g><g transform="translate(775 480) rotate(0 82.5 62.5)"><path d="M142.4 135.68 C151.4 131.43, 160.4 127.17, 165 125 M142.4 135.68 C147.24 133.39, 152.09 131.1, 165 125" stroke="#854d0e" stroke-width="2" fill="none"></path></g><g transform="translate(775 480) rotate(0 82.5 62.5)"><path d="M140.82 118.65 C150.45 121.18, 160.08 123.71, 165 125 M140.82 118.65 C146 120.01, 151.19 121.37, 165 125" stroke="#854d0e" stroke-width="2" fill="none"></path></g></g><mask></mask><g stroke-linecap="round"><g transform="translate(1240 260) rotate(0 105 0)"><path d="M0 0 C35 0, 175 0, 210 0 M0 0 C35 0, 175 0, 210 0" stroke="#0369a1" stroke-width="2" fill="none"></path></g><g transform="translate(1240 260) rotate(0 105 0)"><path d="M186.51 8.55 C195.86 5.15, 205.22 1.74, 210 0 M186.51 8.55 C193.24 6.1, 199.96 3.65, 210 0" stroke="#0369a1" stroke-width="2" fill="none"></path></g><g transform="translate(1240 260) rotate(0 105 0)"><path d="M186.51 -8.55 C195.86 -5.15, 205.22 -1.74, 210 0 M186.51 -8.55 C193.24 -6.1, 199.96 -3.65, 210 0" stroke="#0369a1" stroke-width="2" fill="none"></path></g></g><mask></mask><g stroke-linecap="round"><g transform="translate(1450 315) rotate(0 -105 0)"><path d="M0 0 C-35 0, -175 0, -210 0" stroke="#475569" stroke-width="2.5" fill="none" stroke-dasharray="8 10"></path></g><g transform="translate(1450 315) rotate(0 -105 0)"><path d="M-186.51 -8.55 C-195.86 -5.15, -205.22 -1.74, -210 0" stroke="#475569" stroke-width="2.5" fill="none"></path></g><g transform="translate(1450 315) rotate(0 -105 0)"><path d="M-186.51 8.55 C-195.86 5.15, -205.22 1.74, -210 0" stroke="#475569" stroke-width="2.5" fill="none"></path></g></g><mask></mask><g stroke-linecap="round"><g transform="translate(970 345) rotate(0 -25 125)"><path d="M0 0 C-8.33 0, -41.67 -41.67, -50 0 C-58.33 41.67, -53.33 208.33, -50 250 C-46.67 291.67, -33.33 250, -30 250 M0 0 C-8.33 0, -41.67 -41.67, -50 0 C-58.33 41.67, -53.33 208.33, -50 250 C-46.67 291.67, -33.33 250, -30 250" stroke="#0369a1" stroke-width="2" fill="none"></path></g><g transform="translate(970 345) rotate(0 -25 125)"><path d="M-32.29 259.73 C-31.38 255.86, -30.47 251.98, -30 250 M-32.29 259.73 C-31.76 257.49, -31.23 255.25, -30 250" stroke="#0369a1" stroke-width="2" fill="none"></path></g><g transform="translate(970 345) rotate(0 -25 125)"><path d="M-38.01 255.99 C-34.82 253.6, -31.63 251.22, -30 250 M-38.01 255.99 C-36.17 254.61, -34.32 253.23, -30 250" stroke="#0369a1" stroke-width="2" fill="none"></path></g></g><mask></mask><g stroke-linecap="round"><g transform="translate(1240 570) rotate(0 105 0)"><path d="M0 0 C35 0, 175 0, 210 0 M0 0 C35 0, 175 0, 210 0" stroke="#1e40af" stroke-width="2" fill="none"></path></g><g transform="translate(1240 570) rotate(0 105 0)"><path d="M186.51 8.55 C195.86 5.15, 205.22 1.74, 210 0 M186.51 8.55 C193.61 5.97, 200.71 3.38, 210 0" stroke="#1e40af" stroke-width="2" fill="none"></path></g><g transform="translate(1240 570) rotate(0 105 0)"><path d="M186.51 -8.55 C195.86 -5.15, 205.22 -1.74, 210 0 M186.51 -8.55 C193.61 -5.97, 200.71 -3.38, 210 0" stroke="#1e40af" stroke-width="2" fill="none"></path></g></g><mask></mask><g stroke-linecap="round"><g transform="translate(1450 630) rotate(0 -105 0)"><path d="M0 0 C-35 0, -175 0, -210 0" stroke="#475569" stroke-width="2.5" fill="none" stroke-dasharray="8 10"></path></g><g transform="translate(1450 630) rotate(0 -105 0)"><path d="M-186.51 -8.55 C-195.86 -5.15, -205.22 -1.74, -210 0" stroke="#475569" stroke-width="2.5" fill="none"></path></g><g transform="translate(1450 630) rotate(0 -105 0)"><path d="M-186.51 8.55 C-195.86 5.15, -205.22 1.74, -210 0" stroke="#475569" stroke-width="2.5" fill="none"></path></g></g><mask></mask><g stroke-linecap="round"><g transform="translate(940 640) rotate(0 -170 -97.5)"><path d="M0 0 C-51.67 0, -258.33 32.5, -310 0 C-361.67 -32.5, -305 -162.5, -310 -195 C-315 -227.5, -335 -195, -340 -195" stroke="#475569" stroke-width="2.5" fill="none" stroke-dasharray="8 10"></path></g><g transform="translate(940 640) rotate(0 -170 -97.5)"><path d="M-332.15 -207.78 C-335.28 -202.69, -338.4 -197.6, -340 -195" stroke="#475569" stroke-width="2.5" fill="none"></path></g><g transform="translate(940 640) rotate(0 -170 -97.5)"><path d="M-325.77 -199.74 C-331.44 -197.85, -337.11 -195.97, -340 -195" stroke="#475569" stroke-width="2.5" fill="none"></path></g></g><mask></mask><g stroke-linecap="round"><g transform="translate(360 445) rotate(0 -60 0)"><path d="M0 0 C-20 0, -100 0, -120 0" stroke="#475569" stroke-width="2.5" fill="none" stroke-dasharray="8 10"></path></g><g transform="translate(360 445) rotate(0 -60 0)"><path d="M-96.51 -8.55 C-105.86 -5.14, -115.22 -1.74, -120 0" stroke="#475569" stroke-width="2.5" fill="none"></path></g><g transform="translate(360 445) rotate(0 -60 0)"><path d="M-96.51 8.55 C-105.86 5.14, -115.22 1.74, -120 0" stroke="#475569" stroke-width="2.5" fill="none"></path></g></g><mask></mask><g stroke-linecap="round"><g transform="translate(125 465) rotate(0 117.5 157.5)"><path d="M0 0 C0 52.5, -39.17 262.5, 0 315 C39.17 367.5, 195.83 315, 235 315" stroke="#1e40af" stroke-width="2.5" fill="none" stroke-dasharray="1.5 8"></path></g><g transform="translate(125 465) rotate(0 117.5 157.5)"><path d="M213.2 327.23 C221.88 322.36, 230.56 317.49, 235 315" stroke="#1e40af" stroke-width="2.5" fill="none" stroke-dasharray="1.5 6"></path></g><g transform="translate(125 465) rotate(0 117.5 157.5)"><path d="M210.44 310.36 C220.22 312.21, 230 314.06, 235 315" stroke="#1e40af" stroke-width="2.5" fill="none" stroke-dasharray="1.5 6"></path></g></g><mask></mask><g stroke-linecap="round"><g transform="translate(1240 315) rotate(0 7.5 240)"><path d="M0 0 C5 0, 25 -80, 30 0 C35 80, 37.5 400, 30 480 C22.5 560, -7.5 480, -15 480" stroke="#166534" stroke-width="2.5" fill="none" stroke-dasharray="1.5 8"></path></g><g transform="translate(1240 315) rotate(0 7.5 240)"><path d="M3.98 492.08 C-3.58 487.27, -11.14 482.46, -15 480" stroke="#166534" stroke-width="2.5" fill="none" stroke-dasharray="1.5 6"></path></g><g transform="translate(1240 315) rotate(0 7.5 240)"><path d="M-8.23 501.46 C-10.92 492.91, -13.62 484.36, -15 480" stroke="#166534" stroke-width="2.5" fill="none" stroke-dasharray="1.5 6"></path></g></g><mask></mask><g stroke-linecap="round"><g transform="translate(1090 660) rotate(0 0 42.5)"><path d="M0 0 C0 14.17, 0 70.83, 0 85" stroke="#166534" stroke-width="2.5" fill="none" stroke-dasharray="1.5 8"></path></g><g transform="translate(1090 660) rotate(0 0 42.5)"><path d="M-8.55 61.51 C-5.14 70.86, -1.74 80.22, 0 85" stroke="#166534" stroke-width="2.5" fill="none" stroke-dasharray="1.5 6"></path></g><g transform="translate(1090 660) rotate(0 0 42.5)"><path d="M8.55 61.51 C5.14 70.86, 1.74 80.22, 0 85" stroke="#166534" stroke-width="2.5" fill="none" stroke-dasharray="1.5 6"></path></g></g><mask></mask><g stroke-linecap="round"><g transform="translate(985 795) rotate(0 -37.5 -2.5)"><path d="M0 0 C-12.5 -0.83, -62.5 -4.17, -75 -5" stroke="#166534" stroke-width="2.5" fill="none" stroke-dasharray="1.5 8"></path></g><g transform="translate(985 795) rotate(0 -37.5 -2.5)"><path d="M-50.99 -11.97 C-60.55 -9.19, -70.12 -6.42, -75 -5" stroke="#166534" stroke-width="2.5" fill="none" stroke-dasharray="1.5 6"></path></g><g transform="translate(985 795) rotate(0 -37.5 -2.5)"><path d="M-52.13 5.09 C-61.24 1.07, -70.35 -2.95, -75 -5" stroke="#166534" stroke-width="2.5" fill="none" stroke-dasharray="1.5 6"></path></g></g><mask></mask><g stroke-linecap="round"><g transform="translate(610 790) rotate(0 40 0)"><path d="M0 0 C13.33 0, 66.67 0, 80 0 M0 0 C13.33 0, 66.67 0, 80 0" stroke="#166534" stroke-width="2" fill="none"></path></g><g transform="translate(610 790) rotate(0 40 0)"><path d="M56.51 8.55 C65.86 5.14, 75.22 1.74, 80 0 M56.51 8.55 C63.05 6.17, 69.58 3.79, 80 0" stroke="#166534" stroke-width="2" fill="none"></path></g><g transform="translate(610 790) rotate(0 40 0)"><path d="M56.51 -8.55 C65.86 -5.14, 75.22 -1.74, 80 0 M56.51 -8.55 C63.05 -6.17, 69.58 -3.79, 80 0" stroke="#166534" stroke-width="2" fill="none"></path></g></g><mask></mask><g transform="translate(800 255) rotate(0 65 11)"><text x="65" y="14.7802734375" font-family="Helvetica, Segoe UI Emoji" font-size="14px" fill="#0369a1" text-anchor="middle" style="white-space: pre;" direction="ltr" dominant-baseline="alphabetic">是 · 发现图片</text></g><g transform="translate(785 515) rotate(0 70 11)"><text x="70" y="14.7802734375" font-family="Helvetica, Segoe UI Emoji" font-size="14px" fill="#854d0e" text-anchor="middle" style="white-space: pre;" direction="ltr" dominant-baseline="alphabetic">否 · 原请求体</text></g><g transform="translate(875 470) rotate(0 60 21)"><text x="60" y="14.2802734375" font-family="Helvetica, Segoe UI Emoji" font-size="14px" fill="#0369a1" text-anchor="middle" style="white-space: pre;" direction="ltr" dominant-baseline="alphabetic">图片替换为</text><text x="60" y="35.2802734375" font-family="Helvetica, Segoe UI Emoji" font-size="14px" fill="#0369a1" text-anchor="middle" style="white-space: pre;" direction="ltr" dominant-baseline="alphabetic">文本描述</text></g><g transform="translate(1280 230) rotate(0 65 11)"><text x="65" y="14.7802734375" font-family="Helvetica, Segoe UI Emoji" font-size="14px" fill="#0369a1" text-anchor="middle" style="white-space: pre;" direction="ltr" dominant-baseline="alphabetic">影子请求</text></g><g transform="translate(1280 322) rotate(0 65 11)"><text x="65" y="14.7802734375" font-family="Helvetica, Segoe UI Emoji" font-size="14px" fill="#64748b" text-anchor="middle" style="white-space: pre;" direction="ltr" dominant-baseline="alphabetic">图片描述</text></g><g transform="translate(1280 540) rotate(0 65 11)"><text x="65" y="14.7802734375" font-family="Helvetica, Segoe UI Emoji" font-size="14px" fill="#1e40af" text-anchor="middle" style="white-space: pre;" direction="ltr" dominant-baseline="alphabetic">请求 / 重试</text></g><g transform="translate(1280 637) rotate(0 65 11)"><text x="65" y="14.7802734375" font-family="Helvetica, Segoe UI Emoji" font-size="14px" fill="#64748b" text-anchor="middle" style="white-space: pre;" direction="ltr" dominant-baseline="alphabetic">流式 / 普通响应</text></g><g transform="translate(1085 690) rotate(0 65 11)"><text x="65" y="14.7802734375" font-family="Helvetica, Segoe UI Emoji" font-size="14px" fill="#166534" text-anchor="middle" style="white-space: pre;" direction="ltr" dominant-baseline="alphabetic">异步统计</text></g></svg>